<?xml version="1.0" standalone="no"?><!DOCTYPE svg PUBLIC "-//W3C//DTD SVG 1.1//EN" "http://www.w3.org/Graphics/SVG/1.1/DTD/svg11.dtd"><svg t="1779379526670" class="icon" viewBox="0 0 1024 1024" version="1.1" xmlns="http://www.w3.org/2000/svg" p-id="18509" xmlns:xlink="http://www.w3.org/1999/xlink" width="256" height="256"><path d="M298.666667 85.333333C228.48 85.333333 170.666667 143.146667 170.666667 213.333333v213.333334c0 24.064-18.602667 42.666667-42.666667 42.666666a42.666667 42.666667 0 0 0 0 85.333334c24.064 0 42.666667 18.602667 42.666667 42.666666v213.333334c0 70.186667 57.813333 128 128 128h42.666666a42.666667 42.666667 0 0 0 42.666667-42.666667 42.666667 42.666667 0 0 0-42.666667-42.666667H298.666667c-23.68 0-42.666667-18.986667-42.666667-42.666666v-213.333334c0-33.152-14.592-62.506667-35.584-85.333333 20.992-22.826667 35.584-52.181333 35.584-85.333333V213.333333c0-24.064 18.602667-42.666667 42.666667-42.666666h42.666666a42.666667 42.666667 0 0 0 42.666667-42.666667 42.666667 42.666667 0 0 0-42.666667-42.666667zM682.666667 85.333333a42.666667 42.666667 0 0 0-42.666667 42.666667 42.666667 42.666667 0 0 0 42.666667 42.666667h42.666666c24.064 0 42.666667 18.602667 42.666667 42.666666v213.333334c0 33.152 14.592 62.506667 35.584 85.333333-20.992 22.826667-35.584 52.181333-35.584 85.333333v213.333334c0 24.064-18.602667 42.666667-42.666667 42.666666h-42.666666a42.666667 42.666667 0 0 0-42.666667 42.666667 42.666667 42.666667 0 0 0 42.666667 42.666667h42.666666c70.186667 0 128-57.813333 128-128v-213.333334c0-23.68 18.986667-42.666667 42.666667-42.666666a42.666667 42.666667 0 0 0 0-85.333334c-24.064 0-42.666667-18.602667-42.666667-42.666666V213.333333c0-70.186667-57.813333-128-128-128z" fill="#ffffff" p-id="18510"></path></svg>