<?xml version="1.0" standalone="no"?><!DOCTYPE svg PUBLIC "-//W3C//DTD SVG 1.1//EN" "http://www.w3.org/Graphics/SVG/1.1/DTD/svg11.dtd"><svg t="1779379568599" class="icon" viewBox="0 0 1024 1024" version="1.1" xmlns="http://www.w3.org/2000/svg" p-id="18895" xmlns:xlink="http://www.w3.org/1999/xlink" width="256" height="256"><path d="M682.666667 128a42.666667 42.666667 0 0 0-42.666667 42.666667 42.666667 42.666667 0 0 0 42.666667 42.666666h85.333333c24.064 0 42.666667 18.602667 42.666667 42.666667v85.333333a42.666667 42.666667 0 0 0 42.666666 42.666667 42.666667 42.666667 0 0 0 42.666667-42.666667V256c0-70.186667-57.813333-128-128-128zM852.906667 469.504c-34.432-2.048-71.850667 11.605333-100.736 40.533333l-213.76 213.76a128.128 128.128 0 0 0-32.426667 54.698667l-35.669333 122.453333c-13.482667 46.293333 33.024 92.885333 79.36 79.36l122.453333-35.712a127.957333 127.957333 0 0 0 54.613333-32.341333l213.930667-213.76c28.885333-28.885333 42.538667-66.304 40.533333-100.736a135.765333 135.765333 0 0 0-40.533333-87.765333 135.765333 135.765333 0 0 0-87.765333-40.533334z m-4.992 85.248c10.965333 0.64 23.082667 6.272 32.426666 15.573333 9.301333 9.344 14.933333 21.461333 15.573334 32.426667 0.64 10.965333-1.749333 21.589333-15.573334 35.413333l-213.845333 213.674667a42.666667 42.666667 0 0 0-0.085333 0.085333 42.410667 42.410667 0 0 1-18.176 10.752l-85.162667 24.832 24.832-85.077333c2.005333-6.912 5.76-13.226667 10.837333-18.261333l213.76-213.845334c13.824-13.824 24.448-16.213333 35.413334-15.573333zM256 128C185.813333 128 128 185.813333 128 256v597.333333c0 70.186667 57.813333 128 128 128h85.333333a42.666667 42.666667 0 0 0 42.666667-42.666666 42.666667 42.666667 0 0 0-42.666667-42.666667H256c-24.064 0-42.666667-18.602667-42.666667-42.666667V256c0-24.064 18.602667-42.666667 42.666667-42.666667h85.333333a42.666667 42.666667 0 0 0 42.666667-42.666666 42.666667 42.666667 0 0 0-42.666667-42.666667z" fill="#ffffff" p-id="18896"></path><path d="M384 42.666667c-46.506667 0-85.333333 38.826667-85.333333 85.333333v85.333333c0 46.506667 38.826667 85.333333 85.333333 85.333334h256c46.506667 0 85.333333-38.826667 85.333333-85.333334V128c0-46.506667-38.826667-85.333333-85.333333-85.333333z m0 85.333333h256v85.333333H384z" fill="#ffffff" p-id="18897"></path></svg>