<?xml version="1.0" standalone="no"?><!DOCTYPE svg PUBLIC "-//W3C//DTD SVG 1.1//EN" "http://www.w3.org/Graphics/SVG/1.1/DTD/svg11.dtd"><svg t="1779379588425" class="icon" viewBox="0 0 1024 1024" version="1.1" xmlns="http://www.w3.org/2000/svg" p-id="19401" xmlns:xlink="http://www.w3.org/1999/xlink" width="256" height="256"><path d="M652.501333 225.834667a42.666667 42.666667 0 0 0 0 60.330666L878.336 512l-225.834667 225.834667a42.666667 42.666667 0 0 0 0 60.330666 42.666667 42.666667 0 0 0 60.330667 0l256-256a42.666667 42.666667 0 0 0 0-60.330666l-256-256a42.666667 42.666667 0 0 0-60.330667 0zM341.333333 213.333333a42.666667 42.666667 0 0 0-30.165333 12.501334l-256 256a42.666667 42.666667 0 0 0 0 60.330666l256 256a42.666667 42.666667 0 0 0 60.330667 0 42.666667 42.666667 0 0 0 0-60.330666L145.664 512l225.834667-225.834667a42.666667 42.666667 0 0 0 0-60.330666A42.666667 42.666667 0 0 0 341.333333 213.333333z" fill="#ffffff" p-id="19402"></path></svg>