<?xml version="1.0" standalone="no"?><!DOCTYPE svg PUBLIC "-//W3C//DTD SVG 1.1//EN" "http://www.w3.org/Graphics/SVG/1.1/DTD/svg11.dtd"><svg t="1779379597536" class="icon" viewBox="0 0 1024 1024" version="1.1" xmlns="http://www.w3.org/2000/svg" p-id="19598" xmlns:xlink="http://www.w3.org/1999/xlink" width="256" height="256"><path d="M599.466667 45.909333c-19.754667 0-39.637333 4.992-57.386667 15.104a42.666667 42.666667 0 0 0-0.341333 0.256l-439.466667 256 5.632-2.773333C66.56 331.093333 42.666667 369.28 42.666667 413.866667v281.685333c0 22.016 7.082667 39.381333 15.914666 55.594667 8.832 16.170667 19.456 30.634667 35.242667 42.496a42.666667 42.666667 0 0 0 3.157333 2.133333l268.842667 166.4a42.666667 42.666667 0 0 0 1.322667 0.853333 116.309333 116.309333 0 0 0 114.773333 0 42.666667 42.666667 0 0 0 0.341333-0.256l439.466667-256a42.666667 42.666667 0 0 0 0.512-0.298666c18.944-11.349333 32-26.88 41.941333-43.690667 9.941333-16.810667 17.152-34.858667 17.152-56.917333V328.533333c0-44.544-23.168-77.098667-51.2-98.090666a42.666667 42.666667 0 0 0-3.114666-2.133334l-268.842667-166.4a42.666667 42.666667 0 0 0-1.322667-0.853333 115.882667 115.882667 0 0 0-57.344-15.104z m-15.232 89.344a30.634667 30.634667 0 0 1 30.336 0l264.533333 163.754667c6.144 4.864 16.896 22.912 16.896 29.482667v277.333333c0-0.682667-1.322667 6.869333-5.248 13.525333a48.341333 48.341333 0 0 1-12.416 13.909334l-438.613333 255.488a30.634667 30.634667 0 0 1-30.293334 0h-0.085333l-264.576-163.84a63.701333 63.701333 0 0 1-11.349333-14.677334c-3.968-7.253333-5.418667-15.445333-5.418667-14.72V413.824c0-6.613333 10.282667-19.541333 11.562667-20.053333a42.666667 42.666667 0 0 0 5.674666-2.773334z" fill="#ffffff" p-id="19599"></path><path d="M112.085333 352a42.666667 42.666667 0 0 0-58.752 13.738667 42.666667 42.666667 0 0 0 13.738667 58.752L384 621.098667V934.4a42.666667 42.666667 0 0 0 42.666667 42.666667 42.666667 42.666667 0 0 0 42.666666-42.666667V597.333333a42.666667 42.666667 0 0 0-20.181333-36.266666z" fill="#ffffff" p-id="19600"></path><path d="M912.981333 265.984l-507.733333 294.4a42.666667 42.666667 0 0 0-15.488 58.368 42.666667 42.666667 0 0 0 58.325333 15.488l507.733334-294.4a42.666667 42.666667 0 0 0 15.530666-58.325333 42.666667 42.666667 0 0 0-58.368-15.530667z" fill="#ffffff" p-id="19601"></path><path d="M597.333333 456.533333a42.666667 42.666667 0 0 0-42.666666 42.666667v345.6a42.666667 42.666667 0 0 0 42.666666 42.666667 42.666667 42.666667 0 0 0 42.666667-42.666667v-345.6a42.666667 42.666667 0 0 0-42.666667-42.666667zM768 358.4a42.666667 42.666667 0 0 0-42.666667 42.666667v345.6a42.666667 42.666667 0 0 0 42.666667 42.666666 42.666667 42.666667 0 0 0 42.666667-42.666666V401.066667a42.666667 42.666667 0 0 0-42.666667-42.666667z" fill="#ffffff" p-id="19602"></path></svg>