<?xml version="1.0" standalone="no"?><!DOCTYPE svg PUBLIC "-//W3C//DTD SVG 1.1//EN" "http://www.w3.org/Graphics/SVG/1.1/DTD/svg11.dtd"><svg t="1779380074455" class="icon" viewBox="0 0 1024 1024" version="1.1" xmlns="http://www.w3.org/2000/svg" p-id="20682" xmlns:xlink="http://www.w3.org/1999/xlink" width="256" height="256"><path d="M256 42.666667C185.813333 42.666667 128 100.48 128 170.666667v682.666666c0 70.186667 57.813333 128 128 128h512c70.186667 0 128-57.813333 128-128V341.333333a145.28 145.28 0 0 0-42.837333-103.082666L700.245333 85.333333l-0.085333-0.085333A145.109333 145.109333 0 0 0 597.333333 42.666667z m0 85.333333h341.333333a42.666667 42.666667 0 0 0 0.085334 0c15.914667 0 31.146667 6.314667 42.410666 17.578667a42.666667 42.666667 0 0 0 0 0.085333l153.088 153.088a42.666667 42.666667 0 0 0 0.170667 0.085333c11.306667 11.264 17.621333 26.453333 17.578667 42.410667A42.666667 42.666667 0 0 0 810.666667 341.333333v512c0 24.064-18.602667 42.666667-42.666667 42.666667H256c-24.064 0-42.666667-18.602667-42.666667-42.666667V170.666667c0-24.064 18.602667-42.666667 42.666667-42.666667z" fill="#ffffff" p-id="20683"></path><path d="M597.333333 42.666667a42.666667 42.666667 0 0 0-42.666666 42.666666v213.333334c0 46.634667 38.698667 85.333333 85.333333 85.333333h213.333333a42.666667 42.666667 0 0 0 42.666667-42.666667 42.666667 42.666667 0 0 0-42.666667-42.666666h-213.333333V85.333333a42.666667 42.666667 0 0 0-42.666667-42.666666zM341.333333 469.333333a42.666667 42.666667 0 0 0-42.666666 42.666667 42.666667 42.666667 0 0 0 42.666666 42.666667h341.333334a42.666667 42.666667 0 0 0 42.666666-42.666667 42.666667 42.666667 0 0 0-42.666666-42.666667z" fill="#ffffff" p-id="20684"></path><path d="M426.666667 426.666667a42.666667 42.666667 0 0 0-42.666667 42.666666v85.333334a42.666667 42.666667 0 0 0 42.666667 42.666666 42.666667 42.666667 0 0 0 42.666666-42.666666v-85.333334a42.666667 42.666667 0 0 0-42.666666-42.666666zM341.333333 682.666667a42.666667 42.666667 0 0 0-42.666666 42.666666 42.666667 42.666667 0 0 0 42.666666 42.666667h341.333334a42.666667 42.666667 0 0 0 42.666666-42.666667 42.666667 42.666667 0 0 0-42.666666-42.666666z" fill="#ffffff" p-id="20685"></path><path d="M597.333333 640a42.666667 42.666667 0 0 0-42.666666 42.666667v85.333333a42.666667 42.666667 0 0 0 42.666666 42.666667 42.666667 42.666667 0 0 0 42.666667-42.666667v-85.333333a42.666667 42.666667 0 0 0-42.666667-42.666667z" fill="#ffffff" p-id="20686"></path></svg>