<?xml version="1.0" standalone="no"?><!DOCTYPE svg PUBLIC "-//W3C//DTD SVG 1.1//EN" "http://www.w3.org/Graphics/SVG/1.1/DTD/svg11.dtd"><svg t="1779379618978" class="icon" viewBox="0 0 1024 1024" version="1.1" xmlns="http://www.w3.org/2000/svg" p-id="19798" xmlns:xlink="http://www.w3.org/1999/xlink" width="256" height="256"><path d="M256 42.666667C185.813333 42.666667 128 100.48 128 170.666667v256a42.666667 42.666667 0 0 0 42.666667 42.666666 42.666667 42.666667 0 0 0 42.666666-42.666666V170.666667c0-24.064 18.602667-42.666667 42.666667-42.666667h341.333333a42.666667 42.666667 0 0 0 0.085334 0c15.957333 0 31.232 6.272 42.496 17.578667a42.666667 42.666667 0 0 0 0 0.085333l153.088 153.088a42.666667 42.666667 0 0 0 0.085333 0c11.306667 11.264 17.621333 26.538667 17.578667 42.496A42.666667 42.666667 0 0 0 810.666667 341.333333v512c0 24.064-18.602667 42.666667-42.666667 42.666667h-170.666667a42.666667 42.666667 0 0 0-42.666666 42.666667 42.666667 42.666667 0 0 0 42.666666 42.666666h170.666667c70.186667 0 128-57.813333 128-128V341.333333a145.066667 145.066667 0 0 0-42.666667-102.997333L700.330667 85.333333A145.066667 145.066667 0 0 0 597.333333 42.666667z" fill="#ffffff" p-id="19799"></path><path d="M597.333333 42.666667a42.666667 42.666667 0 0 0-42.666666 42.666666v213.333334c0 46.634667 38.698667 85.333333 85.333333 85.333333h213.333333a42.666667 42.666667 0 0 0 42.666667-42.666667 42.666667 42.666667 0 0 0-42.666667-42.666666h-213.333333V85.333333a42.666667 42.666667 0 0 0-42.666667-42.666666zM213.333333 554.666667c-46.634667 0-85.333333 38.698667-85.333333 85.333333v85.333333a42.666667 42.666667 0 0 0 0 85.333334v85.333333c0 46.634667 38.698667 85.333333 85.333333 85.333333a42.666667 42.666667 0 0 0 42.666667-42.666666 42.666667 42.666667 0 0 0-42.666667-42.666667v-85.333333c0-16.512-9.472-29.482667-17.834666-42.666667 8.362667-13.184 17.834667-26.154667 17.834666-42.666667v-85.333333a42.666667 42.666667 0 0 0 42.666667-42.666667 42.666667 42.666667 0 0 0-42.666667-42.666666zM384 554.666667a42.666667 42.666667 0 0 0-42.666667 42.666666 42.666667 42.666667 0 0 0 42.666667 42.666667v85.333333c0 16.512 9.472 29.482667 17.834667 42.666667-8.362667 13.184-17.834667 26.154667-17.834667 42.666667v85.333333a42.666667 42.666667 0 0 0-42.666667 42.666667 42.666667 42.666667 0 0 0 42.666667 42.666666c46.634667 0 85.333333-38.698667 85.333333-85.333333v-85.333333a42.666667 42.666667 0 0 0 0-85.333334v-85.333333c0-46.634667-38.698667-85.333333-85.333333-85.333333z" fill="#ffffff" p-id="19800"></path></svg>