<?xml version="1.0" standalone="no"?><!DOCTYPE svg PUBLIC "-//W3C//DTD SVG 1.1//EN" "http://www.w3.org/Graphics/SVG/1.1/DTD/svg11.dtd"><svg t="1779380127600" class="icon" viewBox="0 0 1024 1024" version="1.1" xmlns="http://www.w3.org/2000/svg" p-id="20886" xmlns:xlink="http://www.w3.org/1999/xlink" width="256" height="256"><path d="M213.333333 85.333333C143.146667 85.333333 85.333333 143.146667 85.333333 213.333333v597.333334c0 70.186667 57.813333 128 128 128h597.333334c70.186667 0 128-57.813333 128-128V213.333333c0-70.186667-57.813333-128-128-128z m0 85.333334h597.333334c24.362667 0 42.666667 18.304 42.666666 42.666666v597.333334c0 24.362667-18.304 42.666667-42.666666 42.666666H213.333333c-24.362667 0-42.666667-18.304-42.666666-42.666666V213.333333c0-24.362667 18.304-42.666667 42.666666-42.666666z" fill="#ffffff" p-id="20887"></path><path d="M384 256C313.813333 256 256 313.813333 256 384s57.813333 128 128 128 128-57.813333 128-128-57.813333-128-128-128z m0 85.333333c24.064 0 42.666667 18.602667 42.666667 42.666667 0 24.064-18.602667 42.666667-42.666667 42.666667-24.064 0-42.666667-18.602667-42.666667-42.666667 0-24.064 18.602667-42.666667 42.666667-42.666667zM704 440.917333c-32.853333 0-65.706667 12.458667-90.496 37.248l-387.669333 387.669334a42.666667 42.666667 0 0 0 0 60.330666 42.666667 42.666667 0 0 0 60.330666 0l387.669334-387.669333a42.026667 42.026667 0 0 1 60.330666 0l131.669334 131.669333a42.666667 42.666667 0 0 0 60.330666 0 42.666667 42.666667 0 0 0 0-60.330666l-131.669333-131.669334a127.658667 127.658667 0 0 0-90.496-37.248z" fill="#ffffff" p-id="20888"></path></svg>