<?xml version="1.0" standalone="no"?><!DOCTYPE svg PUBLIC "-//W3C//DTD SVG 1.1//EN" "http://www.w3.org/Graphics/SVG/1.1/DTD/svg11.dtd"><svg t="1779379680570" class="icon" viewBox="0 0 1024 1024" version="1.1" xmlns="http://www.w3.org/2000/svg" p-id="20393" xmlns:xlink="http://www.w3.org/1999/xlink" width="256" height="256"><path d="M512 42.666667c-18.133333 0-36.224 3.84-53.077333 11.52L93.738667 220.330667s0 0.085333-0.085334 0.085333a86.485333 86.485333 0 0 0-50.816 77.994667c0 31.061333 18.474667 63.786667 50.901334 78.08l-0.469334-0.170667 366.08 166.826667a127.829333 127.829333 0 0 0 106.154667 0l365.568-166.144 0.085333-0.085334a86.528 86.528 0 0 0 50.944-78.08c0-31.061333-18.517333-63.701333-50.944-77.994666l-366.08-166.656C548.266667 46.506667 530.090667 42.666667 512 42.666667z m-17.749333 89.173333a42.666667 42.666667 0 0 0 0.085333 0 42.410667 42.410667 0 0 1 35.328 0 42.666667 42.666667 0 0 0 0.085333 0L896.256 298.666667a42.666667 42.666667 0 0 0 0.512 0.170666 42.666667 42.666667 0 0 0-0.512 0.256l-366.08 166.4a42.837333 42.837333 0 0 1-35.498667 0L128.682667 298.666667a42.666667 42.666667 0 0 0-0.512-0.256 42.666667 42.666667 0 0 0 0.426666-0.170667zM682.666667 682.666667a42.666667 42.666667 0 0 0-42.666667 42.666666 42.666667 42.666667 0 0 0 42.666667 42.666667h256a42.666667 42.666667 0 0 0 42.666666-42.666667 42.666667 42.666667 0 0 0-42.666666-42.666666z" fill="#ffffff" p-id="20394"></path><path d="M810.666667 554.666667a42.666667 42.666667 0 0 0-42.666667 42.666666v256a42.666667 42.666667 0 0 0 42.666667 42.666667 42.666667 42.666667 0 0 0 42.666666-42.666667v-256a42.666667 42.666667 0 0 0-42.666666-42.666666zM85.418667 469.333333A42.666667 42.666667 0 0 0 42.666667 511.914667a85.589333 85.589333 0 0 0 49.493333 77.653333 42.666667 42.666667 0 0 0 0.256 0.085333l366.933333 166.826667a42.666667 42.666667 0 0 0 0.085334 0c16.554667 7.552 34.602667 11.434667 52.821333 11.434667a42.666667 42.666667 0 0 0 42.666667-42.666667 42.666667 42.666667 0 0 0-42.666667-42.666667c-6.058667 0-12.16-1.322667-17.664-3.84L128 512.085333A42.666667 42.666667 0 0 0 85.418667 469.333333zM85.418667 682.666667A42.666667 42.666667 0 0 0 42.666667 725.248a85.589333 85.589333 0 0 0 49.493333 77.653333 42.666667 42.666667 0 0 0 0.256 0.085334l366.933333 166.826666a42.666667 42.666667 0 0 0 0.085334 0 128 128 0 0 0 105.557333 0 42.666667 42.666667 0 0 0 0.085333 0l90.24-41.045333a42.666667 42.666667 0 0 0 21.205334-56.533333 42.666667 42.666667 0 0 0-56.533334-21.162667l-90.154666 41.002667a42.666667 42.666667 0 0 1-35.242667 0L128 725.418667A42.666667 42.666667 0 0 0 85.418667 682.666667z" fill="#ffffff" p-id="20395"></path></svg>