<?xml version="1.0" standalone="no"?><!DOCTYPE svg PUBLIC "-//W3C//DTD SVG 1.1//EN" "http://www.w3.org/Graphics/SVG/1.1/DTD/svg11.dtd"><svg t="1779379674827" class="icon" viewBox="0 0 1024 1024" version="1.1" xmlns="http://www.w3.org/2000/svg" p-id="20194" xmlns:xlink="http://www.w3.org/1999/xlink" width="256" height="256"><path d="M512 42.666667c-18.133333 0-36.224 3.84-53.077333 11.52L93.738667 220.330667s0 0.085333-0.085334 0.085333a86.485333 86.485333 0 0 0-50.816 77.994667c0 31.061333 18.474667 63.786667 50.901334 78.08l-0.469334-0.170667 366.08 166.826667c33.706667 15.36 72.533333 15.36 106.24 0l365.568-166.144 0.170667-0.170667a86.4 86.4 0 0 0 50.688-77.909333c0-31.061333-18.432-63.786667-50.858667-78.08l-366.08-166.656C548.266667 46.506667 530.090667 42.666667 512 42.666667z m-17.749333 89.173333a42.666667 42.666667 0 0 0 0.085333 0 42.410667 42.410667 0 0 1 35.328 0 42.666667 42.666667 0 0 0 0.085333 0L896.256 298.666667a42.666667 42.666667 0 0 0 0.426667 0.256 42.666667 42.666667 0 0 0-0.426667 0.170666l-366.08 166.4a42.581333 42.581333 0 0 1-35.413333 0 42.666667 42.666667 0 0 0-0.085334 0L128.682667 298.666667a42.666667 42.666667 0 0 0-0.512-0.256 42.666667 42.666667 0 0 0 0.426666-0.170667z" fill="#ffffff" p-id="20195"></path><path d="M85.418667 469.333333A42.666667 42.666667 0 0 0 42.666667 511.914667a85.589333 85.589333 0 0 0 49.493333 77.653333 42.666667 42.666667 0 0 0 0.256 0.085333l366.933333 166.826667a42.666667 42.666667 0 0 0 0.085334 0 128 128 0 0 0 105.557333 0 42.666667 42.666667 0 0 0 0.085333 0l365.909334-166.314667a85.546667 85.546667 0 0 0 50.346666-78.506666A42.666667 42.666667 0 0 0 938.325333 469.333333 42.666667 42.666667 0 0 0 896 512.341333a42.666667 42.666667 0 0 0-0.170667 0.085334l-365.994666 166.314666a42.666667 42.666667 0 0 1-35.242667 0L128 512.085333A42.666667 42.666667 0 0 0 85.418667 469.333333z" fill="#ffffff" p-id="20196"></path><path d="M85.418667 682.666667A42.666667 42.666667 0 0 0 42.666667 725.248a85.589333 85.589333 0 0 0 49.493333 77.653333 42.666667 42.666667 0 0 0 0.256 0.085334l366.933333 166.826666a42.666667 42.666667 0 0 0 0.085334 0 128 128 0 0 0 105.557333 0 42.666667 42.666667 0 0 0 0.085333 0l365.909334-166.314666a85.546667 85.546667 0 0 0 50.346666-78.506667A42.666667 42.666667 0 0 0 938.325333 682.666667 42.666667 42.666667 0 0 0 896 725.674667a42.666667 42.666667 0 0 0-0.170667 0.085333l-365.994666 166.314667a42.666667 42.666667 0 0 1-35.242667 0L128 725.418667A42.666667 42.666667 0 0 0 85.418667 682.666667z" fill="#ffffff" p-id="20197"></path></svg>