<?xml version="1.0" standalone="no"?><!DOCTYPE svg PUBLIC "-//W3C//DTD SVG 1.1//EN" "http://www.w3.org/Graphics/SVG/1.1/DTD/svg11.dtd"><svg t="1779174740431" class="icon" viewBox="0 0 1024 1024" version="1.1" xmlns="http://www.w3.org/2000/svg" p-id="5827" xmlns:xlink="http://www.w3.org/1999/xlink" width="256" height="256"><path d="M960 0a64 64 0 0 1 64 64v256a64 64 0 1 1-128 0V218.24l-192 192L613.76 320l192-192H704a64 64 0 0 1 0-128h256zM320 613.76L410.24 704l-192 192H320a64 64 0 0 1 0 128H64a64 64 0 0 1-64-64v-256a64 64 0 0 1 128 0v101.76l192-192zM320 128H218.24l192 192L320 410.24l-192-192V320a64 64 0 1 1-128 0V64a64 64 0 0 1 64-64h256a64 64 0 0 1 0 128z m640 512a64 64 0 0 1 64 64v256a64 64 0 0 1-64 64h-256a64 64 0 1 1 0-128h101.76l-192-192L704 613.76l192 192V704a64 64 0 0 1 64-64z" fill="#ffffff" p-id="5828"></path></svg>